<svg width="139" height="92" viewBox="0 0 139 92" fill="none" xmlns="http://www.w3.org/2000/svg">
<path d="M134.553 21.1886L135.053 86.75L70.0534 86.75L6.05343 84.5367L4.15524 82.4812C4.10445 82.4555 4.06997 82.4191 4.05343 82.3709L4.15524 82.4812C4.66842 82.7405 6.84672 81.9031 9.0045 81.0347C11.9687 79.8416 14.6941 71.0729 20.1398 69.2465C25.5854 67.42 23.6889 70.7406 30.4972 64.5298C35.636 52.9631 38.1175 52.3297 45.0964 51.5301C52.0753 50.7305 57.4304 61.9094 59.6679 69.4113C61.9055 76.9131 65.1424 84.3781 74.6369 84.0273C84.1313 83.6765 82.9837 63.1323 86.1066 51.0984C89.2295 39.0645 88.4196 40.1078 102.053 28.2273C105.587 13.361 107.06 7.32852 108.053 7.11122L118.553 7.11122L125.553 17.94L134.553 21.1886Z" fill="url(#paint0_linear_2_419)"/>
<path d="M5.27272 84.6024C9.64532 85.3923 12.6693 81.5109 14.662 77.9031C15.565 76.2709 16.2548 74.8299 17.5854 73.5749C18.1468 73.0792 18.7989 72.7152 19.4994 72.5066C20.4267 72.2885 21.3703 72.1612 22.3188 72.1261C24.2249 72.0647 26.0832 71.468 27.7079 70.3958C28.9635 69.4223 30.0196 68.1831 30.811 66.7549C32.3768 64.1075 33.24 61.0658 34.7495 58.3833C34.8327 58.2357 34.9178 58.0893 35.0048 57.9441C35.0574 57.8567 35.2751 57.5236 35.1068 57.7749C35.3222 57.4525 35.5472 57.1378 35.7885 56.8366C36.0145 56.5565 36.2537 56.2889 36.505 56.0348C36.6505 55.8871 36.5347 55.9966 36.5045 56.0265C36.5949 55.9451 36.6909 55.8634 36.7855 55.7818C36.9507 55.6443 37.1204 55.5134 37.2947 55.389C37.469 55.2646 37.6456 55.1476 37.8244 55.0381C37.8867 55.0001 38.2698 54.7878 38.0414 54.905C38.4142 54.7156 38.7986 54.5542 39.1922 54.4217C39.361 54.3637 39.5311 54.3108 39.7024 54.2628C39.7894 54.2385 40.2604 54.1268 40.1639 54.1456C40.2953 54.1193 40.9317 54.0353 41.2639 54.0117C41.6562 53.9834 42.0491 53.9757 42.4426 53.9887C42.5134 53.9912 42.9606 54.018 42.7009 53.9962C42.9457 54.0167 43.1898 54.0493 43.4327 54.0865C44.2612 54.2171 45.0776 54.4236 45.873 54.7036C46.065 54.7675 45.9232 54.7179 45.8836 54.703C45.9715 54.7362 46.059 54.7732 46.1464 54.8094C46.3501 54.8943 46.5518 54.9828 46.7517 55.075C47.1227 55.25 47.486 55.4411 47.8417 55.6484C48.5066 56.0134 49.1296 56.4601 49.6981 56.9795C52.4791 59.4337 54.3965 62.8866 55.8128 66.3614C57.2152 69.803 58.1504 73.4395 59.5901 76.8629C60.9724 80.1512 62.7619 83.3091 65.642 85.3109C68.9167 87.5868 73.0338 87.2707 76.3304 85.2229C79.9089 83.0002 81.9908 78.9809 83.1582 74.8614C84.4317 70.3702 84.6989 65.6185 85.0291 60.966C85.3338 56.6711 85.6772 52.3473 86.8161 48.1962C87.6955 44.6712 89.4082 41.4481 91.7885 38.8388C94.2637 36.273 98.0711 34.8678 100.553 31.9971C103.33 28.7877 103.737 24.4001 104.387 20.2892C104.985 16.5169 105.922 12.6639 108.154 9.75416C109.129 8.44804 110.391 7.42127 111.827 6.7658C112.206 6.59978 112.593 6.45696 112.986 6.33803C113.167 6.28367 113.349 6.23606 113.532 6.19142C113.29 6.25029 113.889 6.12993 113.983 6.1173C114.38 6.06419 114.78 6.03944 115.18 6.04322C115.274 6.04422 115.672 6.06582 115.581 6.05701C115.407 6.03975 115.703 6.07675 115.707 6.07729C115.856 6.10367 116.005 6.12397 116.154 6.15416C117.502 6.43471 118.712 7.22274 119.565 8.37613C120.532 9.78628 121.315 11.3314 121.892 12.9687C122.531 14.8192 123.337 16.598 124.3 18.2797C125.34 19.9924 126.744 21.4167 128.396 22.4364C129.218 22.9323 130.127 23.2415 131.066 23.345C132.005 23.4485 132.954 23.3439 133.854 23.0379C134.298 22.8767 134.664 22.5331 134.872 22.0828C135.079 21.6324 135.112 21.1123 134.962 20.6367C134.812 20.1611 134.492 19.769 134.072 19.5468C133.653 19.3245 133.168 19.2902 132.724 19.4515C132.547 19.5182 132.367 19.5724 132.183 19.6137C132.443 19.5635 131.927 19.6197 131.843 19.6226C131.758 19.6256 131.665 19.6253 131.576 19.6247C131.612 19.6225 131.819 19.6544 131.608 19.6273C131.374 19.5966 131.141 19.5482 130.913 19.4825C130.827 19.4582 130.741 19.4317 130.656 19.4022C130.695 19.4157 130.853 19.4839 130.664 19.4016C130.476 19.3194 130.274 19.2182 130.084 19.1111C129.767 18.9416 129.47 18.7324 129.2 18.4878C128.591 17.9751 128.05 17.3764 127.592 16.708C127.333 16.3377 127.093 15.9539 126.87 15.5566C126.752 15.3457 126.642 15.1314 126.531 14.9162C126.463 14.7902 126.403 14.6593 126.352 14.5244C124.871 11.0921 123.837 7.17248 121.061 4.62562C118.188 1.98854 114.132 1.67974 110.698 3.18151C107.184 4.82354 104.414 7.88339 102.988 11.6979C102.217 13.6397 101.632 15.6607 101.243 17.7294C100.859 19.6985 100.649 21.6991 100.285 23.6722C100.126 24.5917 99.9068 25.4985 99.6307 26.3859C99.3535 27.2222 98.9721 28.0146 98.4967 28.7414C97.3926 30.163 96.0417 31.3415 94.5192 32.2114C92.9238 33.1773 91.4058 34.2831 89.9806 35.5177C88.546 36.8668 87.3042 38.4347 86.295 40.171C84.3951 43.5587 83.114 47.3026 82.5201 51.2027C81.7313 55.7737 81.6178 60.4371 81.1966 65.0543C80.8069 69.331 80.2496 73.818 78.3258 77.595C77.5321 79.2194 76.3853 80.6155 74.9826 81.6651C73.6314 82.7182 71.9834 83.2402 70.3164 83.1431C70.1037 83.1282 70.2452 83.1331 70.285 83.1382C70.184 83.1263 70.0836 83.1097 69.9831 83.0932C69.7797 83.0594 69.5778 83.0168 69.3772 82.9656C69.2132 82.9235 69.0521 82.8698 68.8885 82.8231C68.8756 82.8194 68.6143 82.7272 68.788 82.7922C68.9617 82.8572 68.5313 82.6793 68.5407 82.6833C68.2395 82.546 67.9463 82.3896 67.6625 82.215C67.5683 82.1572 67.4766 82.0939 67.3831 82.0353C67.3714 82.0277 67.1456 81.8712 67.2968 81.9793C67.3834 82.0414 67.0365 81.7727 66.9544 81.7036C66.6735 81.4662 66.4042 81.2134 66.1478 80.946C66.0078 80.8001 65.8714 80.651 65.7385 80.4986C65.6814 80.4325 65.6248 80.3655 65.569 80.2985C65.3789 80.0702 65.7141 80.4911 65.534 80.2507C65.0427 79.5996 64.5916 78.9147 64.1837 78.2004C63.9828 77.8467 63.7912 77.4874 63.6089 77.1225C63.5237 76.9525 63.4402 76.7809 63.3586 76.6077C63.3173 76.5216 63.2788 76.4354 63.2361 76.3487C63.3405 76.5748 63.1966 76.2572 63.162 76.1783C62.8265 75.4158 62.5157 74.6396 62.2291 73.8559C61.5921 72.1327 61.056 70.3683 60.4578 68.6321C59.133 64.8016 57.564 60.9499 55.2064 57.709C52.9674 54.4797 49.8358 52.0899 46.2562 50.8788C44.5786 50.3018 42.811 50.0854 41.0546 50.2419C39.2982 50.3985 37.5875 50.9249 36.0203 51.791C33.1897 53.4448 31.5217 56.5113 30.2057 59.5424C29.5986 60.9435 29.0378 62.3659 28.3629 63.7295C28.2033 64.0514 28.0378 64.37 27.8629 64.683C27.7835 64.8251 27.7011 64.965 27.6188 65.1057C27.5929 65.1504 27.4138 65.4388 27.5352 65.2479C27.646 65.0722 27.465 65.3515 27.4447 65.3808C27.2517 65.6609 27.0501 65.9355 26.837 66.1948C26.7387 66.3135 26.6378 66.4296 26.5346 66.5431C26.4551 66.6298 26.0649 67.0145 26.3343 66.7638C26.1092 66.9691 25.8721 67.1589 25.6245 67.3319C25.478 67.4341 25.3252 67.5239 25.1756 67.6202C25.004 67.7301 25.2248 67.6021 25.2495 67.5892C25.1574 67.6373 25.0629 67.6817 24.9684 67.7247C24.1295 68.0774 23.2428 68.281 22.343 68.3273C20.1921 68.5361 18.0361 68.6885 16.175 69.9967C13.0194 72.2137 11.9878 76.3354 9.5741 79.0891C9.06109 79.7094 8.44549 80.2226 7.75842 80.6028C7.57021 80.7046 7.6893 80.6313 7.72868 80.6145C7.61077 80.6695 7.48974 80.7194 7.36779 80.7648C7.1867 80.8362 7.00068 80.8923 6.81144 80.9326C7.0262 80.892 6.49543 80.9423 6.42062 80.9439C6.32353 80.9487 6.22627 80.9474 6.12934 80.9399C6.22524 80.9499 6.34957 80.9627 6.01073 80.9011C5.55368 80.8066 5.08006 80.9051 4.68876 81.1761C4.29746 81.447 4.01872 81.8694 3.9107 82.3551C3.81722 82.8458 3.90673 83.356 4.16004 83.7763C4.41335 84.1966 4.8103 84.4936 5.26575 84.6036L5.27272 84.6024Z" fill="url(#paint1_linear_2_419)"/>
<path d="M115.554 13.6626C119.696 13.6626 123.054 10.6203 123.054 6.86743C123.054 3.11457 119.696 0.0722656 115.554 0.0722656C111.412 0.0722656 108.054 3.11457 108.054 6.86743C108.054 10.6203 111.412 13.6626 115.554 13.6626Z" fill="#FF414B"/>
<defs>
<linearGradient id="paint0_linear_2_419" x1="52.7888" y1="-21.8906" x2="63.3591" y2="89.7724" gradientUnits="userSpaceOnUse">
<stop stop-color="#FF7A5C" stop-opacity="0.5"/>
<stop offset="1" stop-color="#FF5C6F" stop-opacity="0.18"/>
</linearGradient>
<linearGradient id="paint1_linear_2_419" x1="13.2915" y1="110.942" x2="56.8164" y2="-38.6783" gradientUnits="userSpaceOnUse">
<stop stop-color="#FF414B"/>
<stop offset="1" stop-color="#FF8760"/>
</linearGradient>
</defs>
</svg>
