<svg width="90" height="91" viewBox="0 0 90 91" fill="none" xmlns="http://www.w3.org/2000/svg">
<g filter="url(#filter0_d_2_437)">
<circle cx="45.0002" cy="41.1451" r="23" fill="#7879F1"/>
</g>
<g clip-path="url(#clip0_2_437)">
<path d="M42.8987 41.3398L42.899 41.3397L42.9151 41.3398C44.9855 41.332 46.9975 42.0166 48.6326 43.2822C49.7852 42.109 51.3639 41.4487 53.0123 41.4544M42.8987 41.3398L33.8133 51.5042C33.916 51.607 34.0557 51.6642 34.2011 51.6627L34.2014 51.8127L34.2021 51.8127C34.2023 51.8127 34.2025 51.8127 34.2027 51.8127L48.476 51.7855C48.4779 51.7876 48.4798 51.7897 48.4817 51.7917L48.4818 51.7917C48.4984 51.8098 48.5131 51.8257 48.5276 51.8426L48.5275 51.8427L48.5322 51.8477C50.4621 53.8902 53.5298 54.3679 55.9896 53.0092L55.917 52.8779L55.9896 53.0092C58.4493 51.6504 59.6782 48.7996 58.9769 46.0784C58.2756 43.3574 55.8223 41.4554 53.0123 41.4544M42.8987 41.3398C40.3569 41.3451 37.9962 42.3335 36.2466 44.1331L42.8987 41.3398ZM53.0123 41.4544C53.0122 41.4544 53.0121 41.4544 53.012 41.4544L53.012 41.6044L53.0125 41.4544C53.0124 41.4544 53.0124 41.4544 53.0123 41.4544ZM47.5181 50.3932L34.9235 50.4142C35.0679 48.3631 35.8786 46.4973 37.2423 45.1022L37.2426 45.1019C38.7274 43.5744 40.7372 42.7325 42.899 42.7325L42.9154 42.7325L42.916 42.7325C44.6747 42.7256 46.3842 43.3045 47.7754 44.3761C46.6494 46.2027 46.5545 48.4819 47.5181 50.3932ZM53.012 52.3814C50.3791 52.3814 48.2449 50.2471 48.2449 47.6142C48.2449 44.9816 50.3791 42.8471 53.012 42.8471C55.6449 42.8471 57.7791 44.9816 57.7791 47.6142C57.7791 50.2471 55.6449 52.3814 53.012 52.3814Z" fill="white" stroke="white" stroke-width="0.3"/>
<path d="M42.9041 40.3394H42.9043C46.1764 40.3394 48.8292 37.6867 48.8292 34.4145C48.8292 31.1422 46.1764 28.4895 42.9043 28.4895C39.6321 28.4895 36.9794 31.1422 36.9794 34.4145L36.9794 34.4147C36.9825 37.6854 39.6332 40.3363 42.9041 40.3394ZM42.9044 29.8822C45.4075 29.8822 47.4364 31.9115 47.4364 34.4145C47.4364 36.9174 45.4075 38.9467 42.9043 38.9467C40.4012 38.9467 38.3721 36.9175 38.3721 34.4146C38.3751 31.9127 40.4024 29.8854 42.9044 29.8822Z" fill="white" stroke="white" stroke-width="0.3"/>
<path d="M54.7594 45.8307L54.7594 45.8307C55.0578 45.5926 55.4923 45.6393 55.7334 45.9356L55.7334 45.9357C55.9741 46.2319 55.9313 46.667 55.6371 46.9103L55.6362 46.911L55.6362 46.911L52.5818 49.397L52.5816 49.3972C52.4575 49.4977 52.3019 49.5525 52.1416 49.5507L52.1432 49.4007M54.7594 45.8307L50.3027 47.772L51.6139 49.307L51.6142 49.3074C51.7466 49.4613 51.9395 49.5503 52.1429 49.5507L52.1432 49.4007M54.7594 45.8307L54.7583 45.8316L52.2329 47.8864L51.361 46.8667C51.361 46.8667 51.361 46.8667 51.361 46.8666C51.111 46.5742 50.6716 46.54 50.3794 46.79L54.7594 45.8307ZM52.1432 49.4007C52.2683 49.4021 52.3899 49.3594 52.4872 49.2806L51.7279 49.2095C51.832 49.3305 51.9835 49.4004 52.1432 49.4007Z" fill="white" stroke="white" stroke-width="0.3"/>
</g>
<defs>
<filter id="filter0_d_2_437" x="0.000183105" y="0.145142" width="90" height="90" filterUnits="userSpaceOnUse" color-interpolation-filters="sRGB">
<feFlood flood-opacity="0" result="BackgroundImageFix"/>
<feColorMatrix in="SourceAlpha" type="matrix" values="0 0 0 0 0 0 0 0 0 0 0 0 0 0 0 0 0 0 127 0" result="hardAlpha"/>
<feOffset dy="4"/>
<feGaussianBlur stdDeviation="11"/>
<feComposite in2="hardAlpha" operator="out"/>
<feColorMatrix type="matrix" values="0 0 0 0 0 0 0 0 0 0 0 0 0 0 0 0 0 0 0.01 0"/>
<feBlend mode="normal" in2="BackgroundImageFix" result="effect1_dropShadow_2_437"/>
<feBlend mode="normal" in="SourceGraphic" in2="effect1_dropShadow_2_437" result="shape"/>
</filter>
<clipPath id="clip0_2_437">
<rect width="27.0588" height="27.0588" fill="white" transform="translate(32.8237 27.6157)"/>
</clipPath>
</defs>
</svg>
