<svg width="190" height="41" viewBox="0 0 190 41" fill="none" xmlns="http://www.w3.org/2000/svg">
<path d="M59.856 30.3906C59.6693 30.3906 59.5107 30.3253 59.38 30.1946C59.2493 30.064 59.184 29.9053 59.184 29.7186V11.4906C59.184 11.2853 59.24 11.1173 59.352 10.9866C59.4827 10.856 59.6507 10.7906 59.856 10.7906H67.36C69.6 10.7906 71.364 11.3226 72.652 12.3866C73.94 13.432 74.584 14.972 74.584 17.0066C74.584 19.0413 73.94 20.5813 72.652 21.6266C71.3827 22.6533 69.6187 23.1666 67.36 23.1666H63.188V29.7186C63.188 29.9053 63.1227 30.064 62.992 30.1946C62.88 30.3253 62.7213 30.3906 62.516 30.3906H59.856ZM67.22 20.0586C68.3027 20.0586 69.1333 19.8066 69.712 19.3026C70.2907 18.78 70.58 18.0146 70.58 17.0066C70.58 16.036 70.3 15.28 69.74 14.7386C69.18 14.1786 68.34 13.8986 67.22 13.8986H63.132V20.0586H67.22ZM78.477 30.3906C78.2904 30.3906 78.1317 30.3253 78.001 30.1946C77.8704 30.064 77.805 29.9053 77.805 29.7186V16.5306C77.805 16.344 77.8704 16.1853 78.001 16.0546C78.1317 15.9053 78.2904 15.8306 78.477 15.8306H80.745C80.9504 15.8306 81.1184 15.896 81.249 16.0266C81.3797 16.1573 81.445 16.3253 81.445 16.5306V17.6786C81.893 17.0813 82.453 16.624 83.125 16.3066C83.8157 15.9893 84.5997 15.8306 85.477 15.8306H86.625C86.8304 15.8306 86.989 15.896 87.101 16.0266C87.2317 16.1386 87.297 16.2973 87.297 16.5026V18.5186C87.297 18.7053 87.2317 18.864 87.101 18.9946C86.989 19.1253 86.8304 19.1906 86.625 19.1906H84.441C83.5637 19.1906 82.873 19.4426 82.369 19.9466C81.865 20.4506 81.613 21.1413 81.613 22.0186V29.7186C81.613 29.9053 81.5477 30.064 81.417 30.1946C81.2864 30.3253 81.1184 30.3906 80.913 30.3906H78.477ZM96.2294 30.6706C94.0454 30.6706 92.3561 30.1106 91.1614 28.9906C89.9667 27.852 89.3227 26.3026 89.2294 24.3426L89.2014 23.1106L89.2294 21.8786C89.3227 19.9373 89.9761 18.3973 91.1894 17.2586C92.4027 16.12 94.0827 15.5506 96.2294 15.5506C98.3761 15.5506 100.056 16.12 101.269 17.2586C102.483 18.3973 103.136 19.9373 103.229 21.8786C103.248 22.1026 103.257 22.5133 103.257 23.1106C103.257 23.708 103.248 24.1186 103.229 24.3426C103.136 26.3026 102.492 27.852 101.297 28.9906C100.103 30.1106 98.4134 30.6706 96.2294 30.6706ZM96.2294 27.8986C97.2187 27.8986 97.9841 27.5906 98.5254 26.9746C99.0667 26.34 99.3654 25.416 99.4214 24.2026C99.4401 24.016 99.4494 23.652 99.4494 23.1106C99.4494 22.5693 99.4401 22.2053 99.4214 22.0186C99.3654 20.8053 99.0667 19.8906 98.5254 19.2746C97.9841 18.64 97.2187 18.3226 96.2294 18.3226C95.2401 18.3226 94.4747 18.64 93.9334 19.2746C93.3921 19.8906 93.0934 20.8053 93.0374 22.0186L93.0094 23.1106L93.0374 24.2026C93.0934 25.416 93.3921 26.34 93.9334 26.9746C94.4747 27.5906 95.2401 27.8986 96.2294 27.8986ZM105.806 30.3906C105.638 30.3906 105.489 30.3346 105.358 30.2226C105.246 30.092 105.19 29.9426 105.19 29.7746C105.19 29.6066 105.256 29.448 105.386 29.2986L110.146 22.9146L105.722 16.9226C105.61 16.7733 105.554 16.6146 105.554 16.4466C105.554 16.2786 105.61 16.1386 105.722 16.0266C105.853 15.896 106.002 15.8306 106.17 15.8306H108.606C108.793 15.8306 108.933 15.8773 109.026 15.9706C109.138 16.0453 109.25 16.1573 109.362 16.3066L112.526 20.5066L115.69 16.3066C115.709 16.288 115.784 16.204 115.914 16.0546C116.026 15.9053 116.204 15.8306 116.446 15.8306H118.77C118.938 15.8306 119.078 15.896 119.19 16.0266C119.321 16.1386 119.386 16.2693 119.386 16.4186C119.386 16.6053 119.33 16.7733 119.218 16.9226L114.738 22.9706L119.526 29.2986C119.657 29.448 119.722 29.6066 119.722 29.7746C119.722 29.9426 119.657 30.092 119.526 30.2226C119.414 30.3346 119.274 30.3906 119.106 30.3906H116.558C116.26 30.3906 116.008 30.2413 115.802 29.9426L112.442 25.4906L109.026 29.9426C108.821 30.2413 108.569 30.3906 108.27 30.3906H105.806ZM125.359 35.7106C125.21 35.7106 125.079 35.6546 124.967 35.5426C124.855 35.4306 124.799 35.3 124.799 35.1506C124.799 34.9826 124.836 34.8333 124.911 34.7026L127.095 29.5226L121.719 16.8386C121.644 16.6706 121.607 16.54 121.607 16.4466C121.626 16.2786 121.691 16.1386 121.803 16.0266C121.915 15.896 122.055 15.8306 122.223 15.8306H124.491C124.846 15.8306 125.098 16.008 125.247 16.3626L128.971 25.5186L132.807 16.3626C132.956 16.008 133.208 15.8306 133.563 15.8306H135.803C135.952 15.8306 136.083 15.8866 136.195 15.9986C136.326 16.1106 136.391 16.2413 136.391 16.3906C136.391 16.5213 136.354 16.6706 136.279 16.8386L128.355 35.1786C128.187 35.5333 127.926 35.7106 127.571 35.7106H125.359ZM140.005 30.3906C139.818 30.3906 139.66 30.3253 139.529 30.1946C139.398 30.064 139.333 29.9053 139.333 29.7186V11.1826C139.333 10.9773 139.398 10.8186 139.529 10.7066C139.66 10.576 139.818 10.5106 140.005 10.5106H142.329C142.534 10.5106 142.693 10.576 142.805 10.7066C142.936 10.8186 143.001 10.9773 143.001 11.1826V29.7186C143.001 29.9053 142.936 30.064 142.805 30.1946C142.693 30.3253 142.534 30.3906 142.329 30.3906H140.005ZM151.443 30.6706C150.491 30.6706 149.614 30.484 148.811 30.1106C148.027 29.7186 147.402 29.196 146.935 28.5426C146.487 27.8893 146.263 27.1706 146.263 26.3866C146.263 25.1173 146.777 24.0906 147.803 23.3066C148.83 22.5226 150.239 21.9906 152.031 21.7106L155.867 21.1506V20.5626C155.867 19.7413 155.662 19.1253 155.251 18.7146C154.841 18.304 154.178 18.0986 153.263 18.0986C152.647 18.0986 152.143 18.22 151.751 18.4626C151.378 18.6866 151.079 18.9106 150.855 19.1346C150.631 19.3773 150.482 19.536 150.407 19.6106C150.333 19.8346 150.193 19.9466 149.987 19.9466H147.831C147.663 19.9466 147.514 19.8906 147.383 19.7786C147.271 19.6666 147.215 19.5173 147.215 19.3306C147.234 18.864 147.458 18.332 147.887 17.7346C148.335 17.1373 149.017 16.624 149.931 16.1946C150.846 15.7653 151.966 15.5506 153.291 15.5506C155.494 15.5506 157.099 16.0453 158.107 17.0346C159.115 18.024 159.619 19.3213 159.619 20.9266V29.7186C159.619 29.9053 159.554 30.064 159.423 30.1946C159.311 30.3253 159.153 30.3906 158.947 30.3906H156.679C156.493 30.3906 156.334 30.3253 156.203 30.1946C156.073 30.064 156.007 29.9053 156.007 29.7186V28.6266C155.597 29.224 155.009 29.7186 154.243 30.1106C153.497 30.484 152.563 30.6706 151.443 30.6706ZM152.395 28.0106C153.422 28.0106 154.262 27.6746 154.915 27.0026C155.569 26.3306 155.895 25.3506 155.895 24.0626V23.4746L153.095 23.9226C152.013 24.0906 151.191 24.3613 150.631 24.7346C150.09 25.108 149.819 25.5653 149.819 26.1066C149.819 26.704 150.071 27.1706 150.575 27.5066C151.079 27.8426 151.686 28.0106 152.395 28.0106ZM171.775 30.6706C169.853 30.6706 168.359 30.008 167.295 28.6826V29.7186C167.295 29.9053 167.23 30.064 167.099 30.1946C166.987 30.3253 166.829 30.3906 166.623 30.3906H164.411C164.225 30.3906 164.066 30.3253 163.935 30.1946C163.805 30.064 163.739 29.9053 163.739 29.7186V11.1826C163.739 10.9773 163.805 10.8186 163.935 10.7066C164.066 10.576 164.225 10.5106 164.411 10.5106H166.791C166.997 10.5106 167.155 10.576 167.267 10.7066C167.398 10.8186 167.463 10.9773 167.463 11.1826V17.3986C168.527 16.1666 169.965 15.5506 171.775 15.5506C173.661 15.5506 175.107 16.1666 176.115 17.3986C177.123 18.6306 177.665 20.2266 177.739 22.1866C177.758 22.4106 177.767 22.7093 177.767 23.0826C177.767 23.4746 177.758 23.7826 177.739 24.0066C177.665 26.0226 177.123 27.6373 176.115 28.8506C175.107 30.064 173.661 30.6706 171.775 30.6706ZM170.739 27.6746C172.755 27.6746 173.829 26.4333 173.959 23.9506C173.978 23.764 173.987 23.484 173.987 23.1106C173.987 22.7373 173.978 22.4573 173.959 22.2706C173.829 19.788 172.755 18.5466 170.739 18.5466C169.694 18.5466 168.891 18.8826 168.331 19.5546C167.79 20.208 167.501 21.0013 167.463 21.9346L167.435 22.9986L167.463 24.0906C167.519 25.0986 167.809 25.948 168.331 26.6386C168.854 27.3293 169.657 27.6746 170.739 27.6746Z" fill="#3D3D3F"/>
<path d="M31.5665 4.08008H27.2182C25.8765 4.08008 24.7888 5.13908 24.7888 6.44551V10.6792C24.7888 11.9857 25.8765 13.0447 27.2182 13.0447H31.5665C32.9083 13.0447 33.9961 11.9857 33.9961 10.6792V6.44551C33.9961 5.13908 32.9083 4.08008 31.5665 4.08008Z" fill="#FD695A"/>
<path d="M14.5382 13.2971H18.3566C19.9366 13.3845 21.4397 13.9906 22.6205 15.0166L22.7637 15.1715C23.8229 16.3178 24.4462 17.7832 24.5297 19.3231V23.0253C24.5297 23.6703 24.7928 24.2889 25.2613 24.745C25.7297 25.2011 26.3651 25.4574 27.0276 25.4574H31.4983C32.1607 25.4574 32.7961 25.2011 33.2645 24.745C33.733 24.2889 33.9962 23.6703 33.9962 23.0253V18.6724C33.9962 18.0274 33.733 17.4088 33.2645 16.9527C32.7961 16.4966 32.1607 16.2404 31.4983 16.2404H27.6958C26.1143 16.1591 24.6093 15.5522 23.4319 14.5209L23.2728 14.3815C22.2169 13.2331 21.5941 11.7689 21.5068 10.2299V6.51212C21.5068 5.86715 21.2437 5.24852 20.7752 4.79243C20.3067 4.33633 19.6714 4.08008 19.0089 4.08008H14.5382C13.8757 4.08008 13.2404 4.33633 12.772 4.79243C12.3035 5.24852 12.0403 5.86715 12.0403 6.51212V10.8651C12.0403 11.5101 12.3035 12.1286 12.772 12.5847C13.2404 13.0408 13.8757 13.2971 14.5382 13.2971Z" fill="#FD695A"/>
<path d="M32.2142 28.5378H28.4317C26.8572 28.4383 25.3654 27.8023 24.2079 26.7371L23.7824 26.3144C22.7332 25.1556 22.1157 23.6744 22.033 22.1179V18.3599C22.0289 17.7092 21.7669 17.0863 21.3037 16.6261C20.8405 16.166 20.2136 15.9056 19.5586 15.9016H15.7761C14.2146 15.8363 12.7232 15.2392 11.5524 14.2105L11.1269 13.7877C10.0776 12.629 9.46013 11.1478 9.37741 9.59128V5.84901C9.37741 5.197 9.1167 4.57169 8.65272 4.11063C8.18868 3.64964 7.55932 3.39062 6.90306 3.39062H2.47435C1.81816 3.39062 1.18873 3.64964 0.724755 4.11063C0.260708 4.57169 0 5.197 0 5.84901V10.2489C0 10.9009 0.260708 11.5263 0.724755 11.9873C1.18873 12.4483 1.81816 12.7073 2.47435 12.7073H6.24112C7.83165 12.7796 9.34731 13.3996 10.528 14.461L10.9535 14.8838C11.9994 16.0446 12.6164 17.5246 12.7029 19.0802V22.8382C12.707 23.4889 12.969 24.1118 13.4322 24.5719C13.8953 25.0321 14.5223 25.2924 15.1772 25.2966H18.9597C20.509 25.3929 21.9803 26.0052 23.1363 27.0346L23.5618 27.4574C24.6077 28.6182 25.2247 30.0982 25.3112 31.6538V35.4118C25.3153 36.0626 25.5773 36.6854 26.0405 37.1456C26.5036 37.6057 27.1306 37.866 27.7855 37.8701H32.23C32.885 37.866 33.512 37.6057 33.9751 37.1456C34.4382 36.6854 34.7003 36.0626 34.7044 35.4118V30.9961C34.7002 30.3428 34.436 29.7174 33.9695 29.2569C33.503 28.7963 32.8719 28.5378 32.2142 28.5378Z" fill="#FD695A"/>
<path d="M7.29917 28.2158H2.61635C1.17138 28.2158 0 29.2749 0 30.5813V34.8151C0 36.1215 1.17138 37.1805 2.61635 37.1805H7.29917C8.74414 37.1805 9.91552 36.1215 9.91552 34.8151V30.5813C9.91552 29.2749 8.74414 28.2158 7.29917 28.2158Z" fill="#FD695A"/>
<path d="M19.458 27.9637H15.6554C14.074 27.8824 12.5689 27.2755 11.3915 26.2443L11.2325 26.1048C10.1699 24.9483 9.54661 23.4721 9.46644 21.9223V18.2045C9.45858 17.5781 9.20276 16.9788 8.75224 16.5315C8.30172 16.0842 7.69127 15.8234 7.04811 15.8035H2.49787C1.83537 15.8035 1.20006 16.0597 0.731624 16.5158C0.263185 16.9719 0 17.5905 0 18.2355V22.5884C0 23.2334 0.263185 23.852 0.731624 24.3082C1.20006 24.7643 1.83537 25.0204 2.49787 25.0204H6.31627C7.89631 25.1079 9.39937 25.714 10.5802 26.7399L10.7234 26.8948C11.7826 28.0412 12.4059 29.5066 12.4893 31.0463V34.7486C12.4893 35.0693 12.5545 35.3868 12.681 35.6829C12.8076 35.979 12.993 36.2478 13.2266 36.4738C13.4602 36.6999 13.7375 36.8787 14.0424 37C14.3473 37.1213 14.6738 37.1827 15.0031 37.1807H19.458C20.1204 37.1807 20.7558 36.9245 21.2242 36.4684C21.6927 36.0123 21.9558 35.3937 21.9558 34.7486V30.3957C21.9558 29.7507 21.6927 29.1321 21.2242 28.676C20.7558 28.2199 20.1204 27.9637 19.458 27.9637Z" fill="#FD695A"/>
</svg>
