<svg width="22" height="22" viewBox="0 0 22 22" fill="none" xmlns="http://www.w3.org/2000/svg">
<path d="M11.0001 22C17.0752 22 22.0001 17.0751 22.0001 11C22.0001 4.92487 17.0752 0 11.0001 0C4.92496 0 9.15527e-05 4.92487 9.15527e-05 11C9.15527e-05 17.0751 4.92496 22 11.0001 22Z" fill="url(#paint0_linear_2_159)"/>
<path d="M14.2227 5.19922C12.8079 5.19922 11.7227 5.99461 11.0001 7.17827C10.2774 5.9944 9.1921 5.19922 7.77744 5.19922C6.68126 5.19922 5.68108 5.66191 4.96122 6.50203C4.28352 7.29304 3.91025 8.34939 3.91025 9.47654C3.91025 10.7021 4.36993 11.8352 5.35683 13.0423C6.22214 14.1008 7.46437 15.1895 8.90279 16.4503C9.43457 16.9165 9.98448 17.3984 10.5689 17.9244C10.6915 18.0347 10.8458 18.0898 11.0001 18.0898C11.1544 18.0898 11.3087 18.0347 11.4313 17.9244C12.0157 17.3984 12.5656 16.9164 13.0974 16.4503C14.5358 15.1895 15.778 14.1007 16.6433 13.0423C17.6303 11.8352 18.0899 10.7021 18.0899 9.47654C18.0899 7.17183 16.5109 5.19922 14.2227 5.19922Z" fill="url(#paint1_linear_2_159)"/>
<defs>
<linearGradient id="paint0_linear_2_159" x1="11.0001" y1="0" x2="11.0001" y2="22" gradientUnits="userSpaceOnUse">
<stop stop-color="#FF4F4F"/>
<stop offset="1" stop-color="#FB7272" stop-opacity="0.97"/>
</linearGradient>
<linearGradient id="paint1_linear_2_159" x1="11.0001" y1="18.0898" x2="11.0001" y2="5.19922" gradientUnits="userSpaceOnUse">
<stop stop-color="#FFC2CC"/>
<stop offset="1" stop-color="#FFF2F4"/>
</linearGradient>
</defs>
</svg>
