<svg width="53" height="9" viewBox="0 0 53 9" fill="none" xmlns="http://www.w3.org/2000/svg">
<path d="M4.01738 0.365938L2.91888 2.54787L0.461125 2.89889C0.0203779 2.96151 -0.156257 3.49381 0.163368 3.79869L1.9415 5.49611L1.52094 7.89393C1.44524 8.32735 1.91122 8.652 2.3015 8.4493L4.50018 7.31713L6.69887 8.4493C7.08915 8.65035 7.55513 8.32735 7.47943 7.89393L7.05887 5.49611L8.837 3.79869C9.15662 3.49381 8.97999 2.96151 8.53924 2.89889L6.08149 2.54787L4.98299 0.365938C4.78616 -0.0229864 4.21588 -0.0279304 4.01738 0.365938Z" fill="#F7BE2E"/>
<path d="M15.0174 0.365938L13.9189 2.54787L11.4611 2.89889C11.0204 2.96151 10.8437 3.49381 11.1634 3.79869L12.9415 5.49611L12.5209 7.89393C12.4452 8.32735 12.9112 8.652 13.3015 8.4493L15.5002 7.31713L17.6989 8.4493C18.0892 8.65035 18.5551 8.32735 18.4794 7.89393L18.0589 5.49611L19.837 3.79869C20.1566 3.49381 19.98 2.96151 19.5392 2.89889L17.0815 2.54787L15.983 0.365938C15.7862 -0.0229865 15.2159 -0.0279304 15.0174 0.365938Z" fill="#F7BE2E"/>
<path d="M26.0174 0.365938L24.9189 2.54787L22.4611 2.89889C22.0204 2.96151 21.8437 3.49381 22.1634 3.79869L23.9415 5.49611L23.5209 7.89393C23.4452 8.32735 23.9112 8.652 24.3015 8.4493L26.5002 7.31713L28.6989 8.4493C29.0892 8.65035 29.5551 8.32735 29.4794 7.89393L29.0589 5.49611L30.837 3.79869C31.1566 3.49381 30.98 2.96151 30.5392 2.89889L28.0815 2.54787L26.983 0.365938C26.7862 -0.0229865 26.2159 -0.0279304 26.0174 0.365938Z" fill="#F7BE2E"/>
<path d="M37.0174 0.365938L35.9189 2.54787L33.4611 2.89889C33.0204 2.96151 32.8437 3.49381 33.1634 3.79869L34.9415 5.49611L34.5209 7.89393C34.4452 8.32735 34.9112 8.652 35.3015 8.4493L37.5002 7.31713L39.6989 8.4493C40.0892 8.65035 40.5551 8.32735 40.4794 7.89393L40.0589 5.49611L41.837 3.79869C42.1566 3.49381 41.98 2.96151 41.5392 2.89889L39.0815 2.54787L37.983 0.365938C37.7862 -0.0229865 37.2159 -0.0279304 37.0174 0.365938Z" fill="#F7BE2E"/>
<path d="M48.0174 0.365938L46.9189 2.54787L44.4611 2.89889C44.0204 2.96151 43.8437 3.49381 44.1634 3.79869L45.9415 5.49611L45.5209 7.89393C45.4452 8.32735 45.9112 8.652 46.3015 8.4493L48.5002 7.31713L50.6989 8.4493C51.0892 8.65035 51.5551 8.32735 51.4794 7.89393L51.0589 5.49611L52.837 3.79869C53.1566 3.49381 52.98 2.96151 52.5392 2.89889L50.0815 2.54787L48.983 0.365938C48.7862 -0.0229865 48.2159 -0.0279304 48.0174 0.365938Z" fill="#F7BE2E"/>
</svg>
